<?xml version="1.0" encoding="UTF-8" standalone="no"?>
<!DOCTYPE svg PUBLIC "-//W3C//DTD SVG 1.1//EN"
 "http://www.w3.org/Graphics/SVG/1.1/DTD/svg11.dtd">
<!-- Generated by graphviz version 2.47.0 (20210316.0004)
 -->
<!-- Title: dependencies Pages: 1 -->
<svg width="504pt" height="276pt"
 viewBox="0.00 0.00 504.00 276.00" xmlns="http://www.w3.org/2000/svg" xmlns:xlink="http://www.w3.org/1999/xlink">
<g id="graph0" class="graph" transform="scale(1 1) rotate(0) translate(4 272)">
<title>dependencies</title>
<polygon fill="white" stroke="transparent" points="-4,4 -4,-272 500,-272 500,4 -4,4"/>
<text text-anchor="start" x="227.01" y="-42.4" font-family="Times-12" font-weight="bold" font-size="14.00">Legend</text>
<polygon fill="#ffffb3" stroke="transparent" points="14,-10 14,-30 34,-30 34,-10 14,-10"/>
<text text-anchor="start" x="37.63" y="-15.4" font-family="Times-12" font-size="14.00"> &#160;Declarations</text>
<polygon fill="#8dd3c7" stroke="transparent" points="127,-10 127,-30 147,-30 147,-10 127,-10"/>
<text text-anchor="start" x="150.73" y="-15.4" font-family="Times-12" font-size="14.00"> &#160;Module</text>
<polygon fill="#80b1d3" stroke="transparent" points="213,-10 213,-30 233,-30 233,-10 213,-10"/>
<text text-anchor="start" x="236.78" y="-15.4" font-family="Times-12" font-size="14.00"> &#160;Bootstrap</text>
<polygon fill="#fdb462" stroke="transparent" points="310,-10 310,-30 330,-30 330,-10 310,-10"/>
<text text-anchor="start" x="333.67" y="-15.4" font-family="Times-12" font-size="14.00"> &#160;Providers</text>
<polygon fill="#fb8072" stroke="transparent" points="406,-10 406,-30 426,-30 426,-10 406,-10"/>
<text text-anchor="start" x="429.73" y="-15.4" font-family="Times-12" font-size="14.00"> &#160;Exports</text>
<g id="clust1" class="cluster">
<title>cluster_AppModule</title>
<polygon fill="none" stroke="black" stroke-dasharray="1,5" points="101,-70 101,-260 237,-260 237,-70 101,-70"/>
</g>
<g id="clust3" class="cluster">
<title>cluster_AppModule_imports</title>
<polygon fill="none" stroke="black" points="109,-78 109,-195 217,-195 217,-78 109,-78"/>
</g>
<g id="clust13" class="cluster">
<title>cluster_WsModule</title>
<polygon fill="none" stroke="black" stroke-dasharray="1,5" points="245,-135 245,-203 395,-203 395,-135 245,-135"/>
</g>
<g id="clust16" class="cluster">
<title>cluster_WsModule_exports</title>
<polygon fill="none" stroke="black" points="253,-143 253,-195 387,-195 387,-143 253,-143"/>
</g>
<!-- GameModule -->
<g id="node1" class="node">
<title>GameModule</title>
<polygon fill="#8dd3c7" stroke="black" points="209.48,-187 206.48,-191 185.48,-191 182.48,-187 116.52,-187 116.52,-151 209.48,-151 209.48,-187"/>
<text text-anchor="middle" x="163" y="-164.8" font-family="Times,serif" font-size="14.00">GameModule</text>
</g>
<!-- AppModule -->
<g id="node3" class="node">
<title>AppModule</title>
<polygon fill="#8dd3c7" stroke="black" points="216.66,-252 213.66,-256 192.66,-256 189.66,-252 133.34,-252 133.34,-216 216.66,-216 216.66,-252"/>
<text text-anchor="middle" x="175" y="-229.8" font-family="Times,serif" font-size="14.00">AppModule</text>
</g>
<!-- GameModule&#45;&gt;AppModule -->
<g id="edge1" class="edge">
<title>GameModule&#45;&gt;AppModule</title>
<path fill="none" stroke="black" d="M171.33,-187.11C171.33,-187.11 171.33,-205.99 171.33,-205.99"/>
<polygon fill="black" stroke="black" points="167.83,-205.99 171.33,-215.99 174.83,-205.99 167.83,-205.99"/>
</g>
<!-- WsModule -->
<g id="node2" class="node">
<title>WsModule</title>
<polygon fill="#8dd3c7" stroke="black" points="209.21,-122 206.21,-126 185.21,-126 182.21,-122 130.79,-122 130.79,-86 209.21,-86 209.21,-122"/>
<text text-anchor="middle" x="170" y="-99.8" font-family="Times,serif" font-size="14.00">WsModule</text>
</g>
<!-- WsModule&#45;&gt;GameModule -->
<g id="edge3" class="edge">
<title>WsModule&#45;&gt;GameModule</title>
<path fill="none" stroke="black" d="M170,-122.11C170,-122.11 170,-140.99 170,-140.99"/>
<polygon fill="black" stroke="black" points="166.5,-140.99 170,-150.99 173.5,-140.99 166.5,-140.99"/>
</g>
<!-- WsModule&#45;&gt;AppModule -->
<g id="edge2" class="edge">
<title>WsModule&#45;&gt;AppModule</title>
<path fill="none" stroke="black" d="M209.18,-110C211.64,-110 213.16,-110 213.16,-110 213.16,-110 213.16,-205.97 213.16,-205.97"/>
<polygon fill="black" stroke="black" points="209.66,-205.97 213.16,-215.97 216.66,-205.97 209.66,-205.97"/>
</g>
<!-- WsMainGateway  -->
<g id="node4" class="node">
<title>WsMainGateway </title>
<polygon fill="#fb8072" stroke="black" points="378.96,-187 261.04,-187 261.04,-151 378.96,-151 378.96,-187"/>
<text text-anchor="middle" x="320" y="-164.8" font-family="Times,serif" font-size="14.00">WsMainGateway </text>
</g>
<!-- WsModule&#45;&gt;WsMainGateway  -->
<g id="edge4" class="edge">
<title>WsModule&#45;&gt;WsMainGateway </title>
<path fill="none" stroke="black" stroke-dasharray="5,2" d="M209.41,-98C253.85,-98 320,-98 320,-98 320,-98 320,-140.72 320,-140.72"/>
<polygon fill="black" stroke="black" points="316.5,-140.72 320,-150.72 323.5,-140.72 316.5,-140.72"/>
</g>
</g>
</svg>
