<?xml version="1.0" encoding="UTF-8" standalone="no"?>
<!DOCTYPE svg PUBLIC "-//W3C//DTD SVG 1.1//EN"
 "http://www.w3.org/Graphics/SVG/1.1/DTD/svg11.dtd">
<!-- Generated by graphviz version 2.47.0 (20210316.0004)
 -->
<!-- Title: dependencies Pages: 1 -->
<svg width="504pt" height="211pt"
 viewBox="0.00 0.00 504.00 211.00" xmlns="http://www.w3.org/2000/svg" xmlns:xlink="http://www.w3.org/1999/xlink">
<g id="graph0" class="graph" transform="scale(1 1) rotate(0) translate(4 207)">
<title>dependencies</title>
<polygon fill="white" stroke="transparent" points="-4,4 -4,-207 500,-207 500,4 -4,4"/>
<text text-anchor="start" x="227.01" y="-42.4" font-family="Times-12" font-weight="bold" font-size="14.00">Legend</text>
<polygon fill="#ffffb3" stroke="transparent" points="14,-10 14,-30 34,-30 34,-10 14,-10"/>
<text text-anchor="start" x="37.63" y="-15.4" font-family="Times-12" font-size="14.00"> &#160;Declarations</text>
<polygon fill="#8dd3c7" stroke="transparent" points="127,-10 127,-30 147,-30 147,-10 127,-10"/>
<text text-anchor="start" x="150.73" y="-15.4" font-family="Times-12" font-size="14.00"> &#160;Module</text>
<polygon fill="#80b1d3" stroke="transparent" points="213,-10 213,-30 233,-30 233,-10 213,-10"/>
<text text-anchor="start" x="236.78" y="-15.4" font-family="Times-12" font-size="14.00"> &#160;Bootstrap</text>
<polygon fill="#fdb462" stroke="transparent" points="310,-10 310,-30 330,-30 330,-10 310,-10"/>
<text text-anchor="start" x="333.67" y="-15.4" font-family="Times-12" font-size="14.00"> &#160;Providers</text>
<polygon fill="#fb8072" stroke="transparent" points="406,-10 406,-30 426,-30 426,-10 406,-10"/>
<text text-anchor="start" x="429.73" y="-15.4" font-family="Times-12" font-size="14.00"> &#160;Exports</text>
<g id="clust1" class="cluster">
<title>cluster_AppModule</title>
<polygon fill="none" stroke="black" stroke-dasharray="1,5" points="137.5,-70 137.5,-195 358.5,-195 358.5,-70 137.5,-70"/>
</g>
<g id="clust3" class="cluster">
<title>cluster_AppModule_imports</title>
<polygon fill="none" stroke="black" points="145.5,-78 145.5,-130 350.5,-130 350.5,-78 145.5,-78"/>
</g>
<!-- GameModule -->
<g id="node1" class="node">
<title>GameModule</title>
<polygon fill="#8dd3c7" stroke="black" points="342.98,-122 339.98,-126 318.98,-126 315.98,-122 250.02,-122 250.02,-86 342.98,-86 342.98,-122"/>
<text text-anchor="middle" x="296.5" y="-99.8" font-family="Times,serif" font-size="14.00">GameModule</text>
</g>
<!-- AppModule -->
<g id="node3" class="node">
<title>AppModule</title>
<polygon fill="#8dd3c7" stroke="black" points="286.16,-187 283.16,-191 262.16,-191 259.16,-187 202.84,-187 202.84,-151 286.16,-151 286.16,-187"/>
<text text-anchor="middle" x="244.5" y="-164.8" font-family="Times,serif" font-size="14.00">AppModule</text>
</g>
<!-- GameModule&#45;&gt;AppModule -->
<g id="edge1" class="edge">
<title>GameModule&#45;&gt;AppModule</title>
<path fill="none" stroke="black" d="M268.17,-122.11C268.17,-122.11 268.17,-140.99 268.17,-140.99"/>
<polygon fill="black" stroke="black" points="264.67,-140.99 268.17,-150.99 271.67,-140.99 264.67,-140.99"/>
</g>
<!-- WsModule -->
<g id="node2" class="node">
<title>WsModule</title>
<polygon fill="#8dd3c7" stroke="black" points="231.71,-122 228.71,-126 207.71,-126 204.71,-122 153.29,-122 153.29,-86 231.71,-86 231.71,-122"/>
<text text-anchor="middle" x="192.5" y="-99.8" font-family="Times,serif" font-size="14.00">WsModule</text>
</g>
<!-- WsModule&#45;&gt;AppModule -->
<g id="edge2" class="edge">
<title>WsModule&#45;&gt;AppModule</title>
<path fill="none" stroke="black" d="M217.14,-122.11C217.14,-122.11 217.14,-140.99 217.14,-140.99"/>
<polygon fill="black" stroke="black" points="213.64,-140.99 217.14,-150.99 220.64,-140.99 213.64,-140.99"/>
</g>
</g>
</svg>
