<?xml version="1.0" encoding="UTF-8" standalone="no"?>
<!DOCTYPE svg PUBLIC "-//W3C//DTD SVG 1.1//EN"
 "http://www.w3.org/Graphics/SVG/1.1/DTD/svg11.dtd">
<!-- Generated by graphviz version 2.47.0 (20210316.0004)
 -->
<!-- Title: dependencies Pages: 1 -->
<svg width="504pt" height="211pt"
 viewBox="0.00 0.00 504.00 211.00" xmlns="http://www.w3.org/2000/svg" xmlns:xlink="http://www.w3.org/1999/xlink">
<g id="graph0" class="graph" transform="scale(1 1) rotate(0) translate(4 207)">
<title>dependencies</title>
<polygon fill="white" stroke="transparent" points="-4,4 -4,-207 500,-207 500,4 -4,4"/>
<text text-anchor="start" x="227.01" y="-42.4" font-family="Times-12" font-weight="bold" font-size="14.00">Legend</text>
<polygon fill="#ffffb3" stroke="transparent" points="14,-10 14,-30 34,-30 34,-10 14,-10"/>
<text text-anchor="start" x="37.63" y="-15.4" font-family="Times-12" font-size="14.00"> &#160;Declarations</text>
<polygon fill="#8dd3c7" stroke="transparent" points="127,-10 127,-30 147,-30 147,-10 127,-10"/>
<text text-anchor="start" x="150.73" y="-15.4" font-family="Times-12" font-size="14.00"> &#160;Module</text>
<polygon fill="#80b1d3" stroke="transparent" points="213,-10 213,-30 233,-30 233,-10 213,-10"/>
<text text-anchor="start" x="236.78" y="-15.4" font-family="Times-12" font-size="14.00"> &#160;Bootstrap</text>
<polygon fill="#fdb462" stroke="transparent" points="310,-10 310,-30 330,-30 330,-10 310,-10"/>
<text text-anchor="start" x="333.67" y="-15.4" font-family="Times-12" font-size="14.00"> &#160;Providers</text>
<polygon fill="#fb8072" stroke="transparent" points="406,-10 406,-30 426,-30 426,-10 406,-10"/>
<text text-anchor="start" x="429.73" y="-15.4" font-family="Times-12" font-size="14.00"> &#160;Exports</text>
<g id="clust1" class="cluster">
<title>cluster_AppModule</title>
<polygon fill="none" stroke="black" stroke-dasharray="1,5" points="29,-70 29,-195 467,-195 467,-70 29,-70"/>
</g>
<g id="clust3" class="cluster">
<title>cluster_AppModule_imports</title>
<polygon fill="none" stroke="black" points="37,-78 37,-130 459,-130 459,-78 37,-78"/>
</g>
<!-- DiceModule -->
<g id="node1" class="node">
<title>DiceModule</title>
<polygon fill="#8dd3c7" stroke="black" points="450.98,-122 447.98,-126 426.98,-126 423.98,-122 365.02,-122 365.02,-86 450.98,-86 450.98,-122"/>
<text text-anchor="middle" x="408" y="-99.8" font-family="Times,serif" font-size="14.00">DiceModule</text>
</g>
<!-- AppModule -->
<g id="node5" class="node">
<title>AppModule</title>
<polygon fill="#8dd3c7" stroke="black" points="286.66,-187 283.66,-191 262.66,-191 259.66,-187 203.34,-187 203.34,-151 286.66,-151 286.66,-187"/>
<text text-anchor="middle" x="245" y="-164.8" font-family="Times,serif" font-size="14.00">AppModule</text>
</g>
<!-- DiceModule&#45;&gt;AppModule -->
<g id="edge1" class="edge">
<title>DiceModule&#45;&gt;AppModule</title>
<path fill="none" stroke="black" d="M408,-122.11C408,-141.34 408,-169 408,-169 408,-169 296.98,-169 296.98,-169"/>
<polygon fill="black" stroke="black" points="296.98,-165.5 286.98,-169 296.98,-172.5 296.98,-165.5"/>
</g>
<!-- GameModule -->
<g id="node2" class="node">
<title>GameModule</title>
<polygon fill="#8dd3c7" stroke="black" points="347.48,-122 344.48,-126 323.48,-126 320.48,-122 254.52,-122 254.52,-86 347.48,-86 347.48,-122"/>
<text text-anchor="middle" x="301" y="-99.8" font-family="Times,serif" font-size="14.00">GameModule</text>
</g>
<!-- GameModule&#45;&gt;AppModule -->
<g id="edge2" class="edge">
<title>GameModule&#45;&gt;AppModule</title>
<path fill="none" stroke="black" d="M270.67,-122.11C270.67,-122.11 270.67,-140.99 270.67,-140.99"/>
<polygon fill="black" stroke="black" points="267.17,-140.99 270.67,-150.99 274.17,-140.99 267.17,-140.99"/>
</g>
<!-- PlayerModule -->
<g id="node3" class="node">
<title>PlayerModule</title>
<polygon fill="#8dd3c7" stroke="black" points="236.81,-122 233.81,-126 212.81,-126 209.81,-122 141.19,-122 141.19,-86 236.81,-86 236.81,-122"/>
<text text-anchor="middle" x="189" y="-99.8" font-family="Times,serif" font-size="14.00">PlayerModule</text>
</g>
<!-- PlayerModule&#45;&gt;AppModule -->
<g id="edge3" class="edge">
<title>PlayerModule&#45;&gt;AppModule</title>
<path fill="none" stroke="black" d="M219.91,-122.11C219.91,-122.11 219.91,-140.99 219.91,-140.99"/>
<polygon fill="black" stroke="black" points="216.41,-140.99 219.91,-150.99 223.41,-140.99 216.41,-140.99"/>
</g>
<!-- WsModule -->
<g id="node4" class="node">
<title>WsModule</title>
<polygon fill="#8dd3c7" stroke="black" points="123.21,-122 120.21,-126 99.21,-126 96.21,-122 44.79,-122 44.79,-86 123.21,-86 123.21,-122"/>
<text text-anchor="middle" x="84" y="-99.8" font-family="Times,serif" font-size="14.00">WsModule</text>
</g>
<!-- WsModule&#45;&gt;AppModule -->
<g id="edge4" class="edge">
<title>WsModule&#45;&gt;AppModule</title>
<path fill="none" stroke="black" d="M84,-122.11C84,-141.34 84,-169 84,-169 84,-169 193.12,-169 193.12,-169"/>
<polygon fill="black" stroke="black" points="193.12,-172.5 203.12,-169 193.12,-165.5 193.12,-172.5"/>
</g>
</g>
</svg>
